<?xml version="1.0" encoding="UTF-8"?>
<svg version="1.1" xmlns="http://www.w3.org/2000/svg" width="3000" height="3000">
<path d="M0 0 C1.04162796 -0.00281982 2.08325592 -0.00563965 3.15644836 -0.00854492 C4.86233124 -0.00550858 4.86233124 -0.00550858 6.60267639 -0.00241089 C7.80467178 -0.00416321 9.00666718 -0.00591553 10.24508667 -0.00772095 C13.53849103 -0.0113679 16.83183257 -0.01051304 20.12523341 -0.00734186 C23.57422262 -0.00480834 27.02320917 -0.00715862 30.47219849 -0.00872803 C36.26504498 -0.01054706 42.05787871 -0.00815063 47.85072327 -0.00338745 C54.54333231 0.00205209 61.23591088 0.00029368 67.92851919 -0.00521386 C73.67810226 -0.00975561 79.42767617 -0.01039025 85.17726046 -0.00777519 C88.60965351 -0.00621794 92.04203224 -0.00600348 95.47442436 -0.00931168 C99.30234328 -0.01274336 103.13022823 -0.00798326 106.95814514 -0.00241089 C108.09337616 -0.00443512 109.22860718 -0.00645935 110.39823914 -0.00854492 C111.44268692 -0.0057251 112.4871347 -0.00290527 113.56323242 0 C114.46784682 0.00037703 115.37246122 0.00075405 116.30448818 0.0011425 C118.90949409 0.13017279 121.30105703 0.56827134 123.84510803 1.12698364 C125.33944285 1.28772829 126.83696058 1.42096445 128.33607483 1.52835083 C129.20285858 1.59244141 130.06964233 1.65653198 130.96269226 1.7225647 C131.89713165 1.7889917 132.83157104 1.8554187 133.79432678 1.92385864 C135.83807155 2.07594314 137.88177088 2.22863921 139.9254303 2.38186646 C141.53915024 2.50205139 141.53915024 2.50205139 143.18547058 2.62466431 C234.91562719 9.53961553 325.29261623 27.1669367 456.84510803 72.12698364 C458.23440882 72.67416554 459.62390231 73.22085838 461.01356506 73.76712036 C509.92878317 93.00742803 558.58224836 113.93669986 604.03749084 140.49221802 C607.08636029 142.26745539 610.14808377 144.01899455 613.21229553 145.76760864 C648.83268018 166.12888395 683.6036242 187.81149762 716.49208069 212.3755188 C719.73942446 214.79266387 723.00487681 217.18481395 726.26942444 219.5786438 C734.54819965 225.65370439 742.74771695 231.81203714 750.84510803 238.12698364 C751.99482294 239.01764049 753.14456331 239.90826448 754.29432678 240.79885864 C761.25399964 246.20905926 768.04968037 251.7759899 774.75135803 257.50198364 C777.64062124 259.96614328 780.58029261 262.36359364 783.53260803 264.75198364 C787.98414612 268.37532859 792.26893258 272.14662237 796.51307678 276.00979614 C798.60334692 277.90749533 800.71496918 279.77431779 802.84510803 281.62698364 C811.39686349 289.08629928 819.75429014 296.75931818 828.06922913 304.48049927 C829.2552506 305.58010455 830.4430857 306.67775684 831.63270569 307.77346802 C840.40641602 315.85494926 848.96290888 324.14113667 857.40760803 332.56448364 C858.33565247 333.48793579 859.2636969 334.41138794 860.21986389 335.36282349 C864.77177011 339.92505149 869.17547288 344.54489004 873.37220764 349.43582153 C875.26320378 351.6070349 877.27916001 353.62270571 879.34510803 355.62698364 C882.66937347 358.91214007 885.79150634 362.28479052 888.83338928 365.83010864 C891.44791439 368.81523634 894.14564949 371.71875924 896.84510803 374.62698364 C901.26044889 379.39333769 905.60921511 384.19969497 909.84510803 389.12698364 C910.74597449 390.16229238 911.6470339 391.19743323 912.54823303 392.23245239 C918.0795759 398.60879884 923.45464459 405.0717053 928.63148499 411.73928833 C931.5801948 415.53356473 934.58449791 419.27481418 937.63221741 422.99002075 C944.62848269 431.5190477 951.2952914 440.25219365 957.84510803 449.12698364 C959.01556947 450.70649334 960.18614633 452.28591751 961.35682678 453.86526489 C967.84782349 462.63562337 974.28079264 471.44317762 980.58241272 480.35061646 C981.92419918 482.23824953 983.27858807 484.11642464 984.63417053 485.99417114 C992.84007462 497.4142938 1000.39089927 509.20612404 1007.84510803 521.12698364 C1008.39312073 521.99871216 1008.94113342 522.87044067 1009.50575256 523.76858521 C1021.91723093 543.51801907 1033.66750671 563.65471643 1044.84510803 584.12698364 C1045.33833557 585.02852173 1045.83156311 585.93005981 1046.33973694 586.85891724 C1050.20509475 593.93212967 1054.03428375 601.02426073 1057.84510803 608.12698364 C1058.34268616 609.05075806 1058.84026428 609.97453247 1059.35292053 610.92630005 C1080.23324032 649.80472972 1097.8204313 690.65261557 1112.84510803 732.12698364 C1113.31123242 733.40759041 1113.77737876 734.68818918 1114.24354553 735.96878052 C1145.89830744 823.14063841 1167.80771394 912.78514881 1181.25062561 1051.99758911 C1181.34960144 1053.55824097 1181.34960144 1053.55824097 1181.45057678 1055.15042114 C1181.50367004 1056.04680298 1181.55676331 1056.94318481 1181.61146545 1057.86672974 C1181.77953947 1060.29195464 1181.77953947 1060.29195464 1182.84510803 1063.12698364 C1182.93724054 1064.82036065 1182.97139299 1066.51716185 1182.97209167 1068.21304321 C1182.9749115 1069.26460098 1182.97773132 1070.31615875 1182.9806366 1071.39958191 C1182.97861237 1072.55292526 1182.97658813 1073.70626862 1182.97450256 1074.89456177 C1182.97625488 1076.10937729 1182.9780072 1077.32419281 1182.97981262 1078.57582092 C1182.9834633 1081.90840486 1182.98260247 1085.24092683 1182.97943354 1088.57350731 C1182.97690357 1092.05947326 1182.97924925 1095.54543654 1182.9808197 1099.03140259 C1182.98263953 1104.88569617 1182.98023997 1110.73997713 1182.97547913 1116.5942688 C1182.97003686 1123.36471775 1182.97179965 1130.13513659 1182.97730553 1136.90558481 C1182.98184196 1142.71626242 1182.98248461 1148.52693096 1182.97986686 1154.33760977 C1182.97830701 1157.80907783 1182.97810235 1161.28053174 1182.98140335 1164.7519989 C1182.98482544 1168.62114637 1182.98008364 1172.49026004 1182.97450256 1176.35940552 C1182.97753891 1178.08942055 1182.97753891 1178.08942055 1182.9806366 1179.85438538 C1182.97781677 1180.90594315 1182.97499695 1181.95750092 1182.97209167 1183.04092407 C1182.97171465 1183.95605522 1182.97133762 1184.87118637 1182.97094917 1185.81404877 C1182.84510803 1188.12698364 1182.84510803 1188.12698364 1181.84510803 1191.12698364 C1181.61141014 1193.61693515 1181.42213195 1196.09296591 1181.26698303 1198.58792114 C1181.16044368 1200.16632798 1181.05331818 1201.74469533 1180.94569397 1203.32302856 C1180.8892572 1204.16384979 1180.83282043 1205.00467102 1180.77467346 1205.87097168 C1174.49744982 1297.8455267 1156.68716227 1388.14934938 1090.84510803 1574.12698364 C1090.58147461 1574.73225891 1090.31784119 1575.33753418 1090.04621887 1575.96115112 C1069.20045498 1623.76174066 1044.99620676 1669.5738935 1017.74598694 1714.01565552 C1016.13386706 1716.65434749 1014.53635314 1719.30054527 1012.95057678 1721.95510864 C1001.39344414 1741.24975469 988.71990881 1759.90907283 975.38954163 1778.01760864 C973.78372308 1780.21082272 972.19687126 1782.41670099 970.61463928 1784.62698364 C963.22269267 1794.95008614 955.63095837 1805.0977948 947.84510803 1815.12698364 C947.37363342 1815.73493774 946.90215881 1816.34289185 946.41639709 1816.9692688 C935.98464643 1830.39579813 925.26621988 1843.59239561 914.21766663 1856.5161438 C912.81192235 1858.16593048 911.41583695 1859.82353109 910.02088928 1861.48245239 C903.94878641 1868.67342291 897.66906879 1875.62488249 891.18397522 1882.44656372 C887.48888847 1886.3380587 883.91855753 1890.31126961 880.40101624 1894.36380005 C878.07117388 1897.00401996 875.56384046 1899.43303509 873.03260803 1901.87698364 C871.25477671 1903.70561014 869.61646913 1905.55809013 867.96620178 1907.49807739 C862.85990581 1913.37446756 857.30484869 1918.81628413 851.79359436 1924.30886841 C849.91182529 1926.18527839 848.03546065 1928.06697333 846.15956116 1929.94924927 C835.26110979 1940.85311583 835.26110979 1940.85311583 829.44252014 1945.743927 C827.65414607 1947.29232057 826.00105447 1948.93844755 824.34510803 1950.62698364 C821.39910589 1953.6193274 818.31527796 1956.38022537 815.13417053 1959.11917114 C812.90937664 1961.07061152 810.73340302 1963.06882012 808.56410217 1965.08157349 C803.35803509 1969.9100285 798.02694823 1974.49203495 792.49354553 1978.94729614 C789.87235684 1981.10455763 787.35356522 1983.34009365 784.84510803 1985.62698364 C780.64988285 1989.44082472 776.34041306 1993.06757748 771.93104553 1996.63088989 C769.69570986 1998.4389652 767.47322598 2000.25811127 765.25917053 2002.09182739 C757.34911771 2008.61910216 749.27509335 2014.84922568 740.98817444 2020.89089966 C735.67082741 2024.76887173 730.42781927 2028.72830852 725.22010803 2032.75198364 C699.98035112 2052.13678609 673.09015123 2069.70562234 645.84510803 2086.12698364 C644.24339271 2087.10069063 642.64183131 2088.07465087 641.04042053 2089.04885864 C559.05766085 2138.74735593 471.01510146 2178.7696124 127.29286194 2249.85452271 C124.00351423 2250.03872342 124.00351423 2250.03872342 121.45932007 2250.63607597 C118.76459298 2251.1421031 116.30983429 2251.25282372 113.56996155 2251.25396729 C112.52695892 2251.25678711 111.4839563 2251.25960693 110.40934753 2251.26251221 C109.27568756 2251.26048798 108.14202759 2251.25846375 106.97401428 2251.25637817 C105.77187286 2251.25813049 104.56973145 2251.25988281 103.3311615 2251.26168823 C100.04195692 2251.26533117 96.75279268 2251.26448301 93.46358871 2251.26130915 C90.01727465 2251.25877299 86.57096322 2251.26112659 83.12464905 2251.26269531 C77.33777891 2251.26451334 71.55092154 2251.26212031 65.76405334 2251.25735474 C59.07880791 2251.25191282 52.39359297 2251.25367574 45.70834827 2251.25918114 C39.96299129 2251.26372271 34.21764347 2251.2643577 28.47228527 2251.26174247 C25.04326058 2251.26018546 21.61425021 2251.25997018 18.18522644 2251.26327896 C14.36219717 2251.26581534 10.53922667 2251.26195086 6.71620178 2251.25637817 C5.01571182 2251.25941452 5.01571182 2251.25941452 3.28086853 2251.26251221 C2.23786591 2251.25969238 1.19486328 2251.25687256 0.12025452 2251.25396729 C-0.78306107 2251.25359026 -1.68637665 2251.25321323 -2.61706543 2251.25282478 C-5.2208823 2251.12371143 -7.61199769 2250.68548739 -10.15489197 2250.12698364 C-11.61749931 2249.97125534 -13.08328723 2249.84315122 -14.55064392 2249.7414856 C-15.39827301 2249.68058746 -16.2459021 2249.61968933 -17.11921692 2249.5569458 C-18.0346225 2249.4936911 -18.95002808 2249.4304364 -19.89317322 2249.36526489 C-21.90617324 2249.21855122 -23.91911008 2249.0709689 -25.93199158 2248.92263794 C-27.52694962 2248.80557999 -27.52694962 2248.80557999 -29.15412903 2248.68615723 C-125.76817508 2241.49320773 -221.58484186 2222.34917918 -349.57383728 2176.57620239 C-352.72298915 2175.3017706 -355.87605665 2174.03797214 -359.03118896 2172.7784729 C-376.9240283 2165.6312204 -394.63089529 2158.14420591 -412.15489197 2150.12698364 C-412.75259399 2149.85370239 -413.35029602 2149.58042114 -413.96611023 2149.29885864 C-439.17749007 2137.76188401 -464.07290698 2125.76276834 -488.09580994 2111.88528442 C-491.37781377 2109.99885253 -494.67313363 2108.13735052 -497.97129822 2106.27932739 C-512.30813173 2098.19035354 -526.4035641 2089.79080016 -540.292099 2080.94729614 C-543.14538302 2079.13302993 -546.00651387 2077.33176696 -548.86973572 2075.53323364 C-567.10586908 2064.04987691 -584.76131874 2051.84454489 -602.15489197 2039.12698364 C-602.92832947 2038.56366333 -603.70176697 2038.00034302 -604.49864197 2037.41995239 C-619.78049157 2026.28531527 -634.75220666 2014.79536876 -649.3846283 2002.81912231 C-653.71897356 1999.27491186 -658.10729799 1995.81013842 -662.52989197 1992.37698364 C-668.31153525 1987.8753881 -673.75982431 1983.08665987 -679.15489197 1978.12698364 C-680.48411577 1976.955637 -681.81727604 1975.78873771 -683.15489197 1974.62698364 C-691.37865602 1967.45586139 -699.42866701 1960.08859198 -707.45187378 1952.69456482 C-708.5386746 1951.6941947 -709.62665909 1950.69510794 -710.71618652 1949.69770813 C-721.86903182 1939.48080858 -732.5928266 1928.84512246 -743.27354431 1918.13870239 C-745.6914481 1915.71504536 -748.11389546 1913.29598669 -750.53764343 1910.87817574 C-752.89167075 1908.52865609 -755.24185476 1906.17530744 -757.59239197 1903.82229614 C-758.44977966 1902.96693268 -759.30716736 1902.11156921 -760.1905365 1901.23028564 C-764.51540938 1896.88862266 -768.70107419 1892.48522904 -772.6889801 1887.83100891 C-774.9007239 1885.26000351 -777.2183393 1882.7961055 -779.52989197 1880.31448364 C-783.8545903 1875.63923446 -787.91450867 1870.80442955 -791.90879822 1865.84182739 C-794.24319786 1863.02024869 -796.67479795 1860.32107653 -799.15489197 1857.62698364 C-804.04983231 1852.30080435 -808.61863145 1846.75903712 -813.15489197 1841.12698364 C-814.57013846 1839.39665444 -815.98682916 1837.66750554 -817.40489197 1835.93948364 C-818.14868103 1835.02811646 -818.89247009 1834.11674927 -819.65879822 1833.17776489 C-821.47250137 1830.96101659 -823.29313318 1828.75100256 -825.11973572 1826.54495239 C-833.52590567 1816.35020812 -841.40098819 1805.82330482 -849.15489197 1795.12698364 C-850.28357381 1793.57864295 -851.412477 1792.03046358 -852.54161072 1790.48245239 C-859.58036353 1780.80999063 -866.45757804 1771.03882942 -873.15489197 1761.12698364 C-873.67631775 1760.355802 -874.19774353 1759.58462036 -874.73497009 1758.79006958 C-900.96409942 1719.91088201 -924.86466587 1679.91785512 -946.15489197 1638.12698364 C-946.53274841 1637.38786743 -946.91060486 1636.64875122 -947.2999115 1635.88723755 C-949.21662354 1632.13086244 -951.09836098 1628.35862165 -952.95518494 1624.57229614 C-953.86296353 1622.72200914 -954.77402136 1620.8733305 -955.68663025 1619.02542114 C-972.26702993 1585.40392454 -987.21718544 1551.31977921 -1000.15489197 1516.12698364 C-1000.45095337 1515.32365601 -1000.74701477 1514.52032837 -1001.05204773 1513.69265747 C-1034.67570398 1422.29524882 -1055.84997298 1326.02179622 -1065.15489197 1229.12698364 C-1065.22278931 1228.42684143 -1065.29068665 1227.72669922 -1065.36064148 1227.00534058 C-1066.61420123 1214.02508565 -1067.50483469 1201.17207077 -1067.15489197 1188.12698364 C-1067.81489197 1188.12698364 -1068.47489197 1188.12698364 -1069.15489197 1188.12698364 C-1069.15489197 1146.87698364 -1069.15489197 1105.62698364 -1069.15489197 1063.12698364 C-1068.49489197 1063.12698364 -1067.83489197 1063.12698364 -1067.15489197 1063.12698364 C-1067.1744696 1062.21706665 -1067.19404724 1061.30714966 -1067.21421814 1060.36965942 C-1067.34993455 1048.83304688 -1066.53168051 1037.48409257 -1065.46739197 1026.00198364 C-1065.33293167 1024.52968796 -1065.33293167 1024.52968796 -1065.195755 1023.02764893 C-1056.80722383 931.75421394 -1036.83763526 841.65854195 -956.36582947 632.91213989 C-956.01257599 632.16170914 -955.65932251 631.41127838 -955.29536438 630.6381073 C-952.02189403 623.73849458 -948.48241085 616.98519156 -944.87364197 610.25588989 C-942.9216097 606.59367641 -941.01215843 602.91219152 -939.12364197 599.21682739 C-932.12795135 585.55075221 -924.7183962 572.21411446 -916.86924744 559.02053833 C-915.19990995 556.20296671 -913.55118305 553.37439717 -911.90879822 550.54104614 C-904.09678428 537.1048596 -895.75054182 524.07343079 -887.15489197 511.12698364 C-886.07799548 509.49812603 -885.00116897 507.86922215 -883.92442322 506.24026489 C-873.88486903 491.08634183 -863.5719572 476.1518709 -852.85948181 461.46536255 C-851.71186728 459.89104975 -850.56639829 458.31517096 -849.42295837 456.73782349 C-841.77500076 446.18957924 -833.90152203 435.89960948 -825.59190369 425.86380005 C-823.51779431 423.35696788 -821.46210209 420.83518998 -819.40489197 418.31448364 C-818.69461853 417.44823364 -817.98434509 416.58198364 -817.25254822 415.68948364 C-815.83971603 413.96356573 -814.43093488 412.23432463 -813.02598572 410.50198364 C-807.86775932 404.15339731 -802.58940895 397.91942575 -797.24864197 391.72463989 C-795.23544072 389.38914985 -793.23561036 387.04341963 -791.24864197 384.68557739 C-785.19927156 377.5264084 -778.95196077 370.60076551 -772.49351501 363.80715942 C-769.6090621 360.76936577 -766.7803809 357.71140772 -764.06016541 354.525177 C-759.63438592 349.45397362 -754.8906198 344.71920065 -750.12754822 339.96682739 C-749.17008172 339.00868504 -748.21276352 338.05039448 -747.25558472 337.09196472 C-745.2611545 335.09607078 -743.26495456 333.10196912 -741.2674408 331.10916138 C-738.72814798 328.57556501 -736.19337294 326.03750381 -733.65992069 323.49806881 C-731.68757013 321.52207661 -729.71280934 319.54850685 -727.73734856 317.57562447 C-726.35362569 316.19287765 -724.97188882 314.80814434 -723.59020996 313.4233551 C-719.15095535 309.00041506 -714.66548614 304.70645803 -709.88949585 300.64750671 C-708.06216799 299.04570344 -706.35585149 297.36170415 -704.65489197 295.62698364 C-701.68753874 292.61284782 -698.58143904 289.82781032 -695.37754822 287.06838989 C-692.82512314 284.83894303 -690.33601683 282.54696982 -687.84239197 280.25198364 C-683.37966364 276.18158308 -678.79231196 272.32521455 -674.09239197 268.53323364 C-670.79135002 265.82918865 -667.56743581 263.04565504 -664.34239197 260.25198364 C-658.00703626 254.78341624 -651.48903608 249.58856159 -644.87413025 244.46389771 C-643.20977847 243.16966448 -641.55382485 241.86556399 -639.90098572 240.55667114 C-624.68922822 228.51318054 -609.29962182 216.72464367 -593.35752869 205.66165161 C-590.98135473 204.00607308 -588.61631608 202.3353792 -586.25254822 200.66213989 C-575.71502513 193.2152991 -565.04880724 186.04042987 -554.15489197 179.12698364 C-552.62875226 178.15187666 -551.10271307 177.17661233 -549.57676697 176.20120239 C-530.14195074 163.81377747 -510.26180896 152.23752281 -490.21983337 140.86868286 C-487.72888505 139.45316388 -485.24275931 138.03006285 -482.76036072 136.59963989 C-441.70029943 113.03069472 -398.02403085 93.52369351 -353.87168884 76.56008911 C-350.63373182 75.31161251 -347.4012919 74.05039102 -344.17070007 72.7830658 C-312.03461545 60.1879933 -279.38062876 49.46162843 -246.15489197 40.12698364 C-245.1486377 39.84271515 -245.1486377 39.84271515 -244.12205505 39.55270386 C-170.54420342 18.78357563 -94.0678273 6.30816345 -17.77867126 1.72146606 C-16.69110535 1.65548218 -15.60353943 1.58949829 -14.48301697 1.52151489 C-13.54361267 1.46842163 -12.60420837 1.41532837 -11.63633728 1.36062622 C-9.23973387 1.20795125 -9.23973387 1.20795125 -7.32198238 0.62031746 C-4.82062505 0.05088845 -2.56587747 0.00106985 0 0 Z " fill="#000000" transform="translate(1460.1548919677734,336.8730163574219)"/>
<path d="M0 0 C11.02204682 0.54545966 21.83463254 2.00428203 32.75097656 3.54980469 C36.24574423 4.03405112 39.74322738 4.49237566 43.2421875 4.9453125 C55.73451324 6.56528506 68.18318827 8.28423022 80.59667969 10.42944336 C89.41830015 11.94094736 98.26696984 13.22454334 107.125 14.5 C116.42798111 15.84096225 125.70399357 17.23174806 134.9375 19 C145.43808477 21.0069446 156.00595826 22.48095859 166.59936523 23.8984375 C176.88472767 25.29690238 187.10324085 27.03355207 197.328125 28.8125 C215.08987272 31.89971616 232.89583566 34.63082229 250.7277832 37.27801514 C254.64375373 37.86000542 258.55917442 38.44566916 262.47460938 39.03125 C264.02621394 39.26329483 265.57781916 39.49533526 267.12942505 39.72737122 C267.89018467 39.8411442 268.65094429 39.95491718 269.43475723 40.07213783 C271.7024377 40.41104085 273.97021153 40.74931289 276.23800659 41.08744812 C285.21866397 42.42744503 294.19489931 43.79352272 303.16796875 45.18359375 C312.16995327 46.57728506 321.17855723 47.89993781 330.20117188 49.15234375 C343.0556388 50.94143066 355.85801231 52.93578855 368.65136719 55.12475586 C379.55496597 56.97110051 390.48840807 58.54545159 401.4453125 60.03710938 C410.55578179 61.28971716 419.62019318 62.76137807 428.6875 64.29492188 C443.60534755 66.80261256 458.54954774 69.11851691 473.50658226 71.38089371 C477.00405782 71.91053519 480.50109299 72.44306934 483.99816895 72.9753418 C492.83173305 74.31939784 501.66583197 75.65992008 510.5 77 C520.05165851 78.44891808 529.60320594 79.89855045 539.15413809 81.3522501 C542.59735921 81.8762235 546.04070075 82.39937068 549.48439026 82.92025757 C564.91814191 85.25588722 580.33178451 87.67932186 595.72301483 90.27949524 C606.72270792 92.13738515 617.74394397 93.83896536 628.77325439 95.51062012 C645.09826857 97.98653068 661.41814808 100.47875795 677.69140625 103.27734375 C686.16218665 104.72729715 694.65262532 106.03195588 703.14764404 107.33131409 C712.01642601 108.68972332 720.88020873 110.0784965 729.7421875 111.48046875 C732.5379903 111.92245351 735.33381272 112.36431404 738.12963867 112.80615234 C738.83871903 112.9182177 739.5477994 113.03028305 740.27836704 113.14574432 C782.84408595 119.87125346 825.42911537 126.52818615 868.11987305 132.41748047 C875.37853015 133.42968802 882.5891779 134.60670251 889.80157471 135.90029907 C899.23305127 137.58865643 908.70384627 138.96663324 918.19140625 140.296875 C919.02803802 140.41430054 919.8646698 140.53172607 920.72665405 140.65270996 C925.88977084 141.37706181 925.88977084 141.37706181 931.05395508 142.09375 C943.22802988 143.77639428 955.35152354 145.70683452 967.46875 147.75390625 C988.57462355 151.31692909 1009.7321659 154.52659533 1030.89556885 157.72698975 C1034.98216864 158.34564974 1039.0683618 158.96697188 1043.15454769 159.58835888 C1047.17244709 160.1992126 1051.19050604 160.80901114 1055.20862007 161.41845131 C1057.08643835 161.70327451 1058.96423073 161.9882685 1060.84199333 162.27345848 C1071.52707562 163.89511952 1082.21684036 165.47603228 1092.91764736 166.99078655 C1100.05801877 168.00180627 1107.18667144 169.07827048 1114.3125 170.1875 C1115.45783203 170.36474609 1116.60316406 170.54199219 1117.78320312 170.72460938 C1120.52230568 171.14865454 1123.26123712 171.57376761 1126 172 C1126.33 171.34 1126.66 170.68 1127 170 C1132.36891879 170.49869404 1137.69235173 171.02227532 1143 172 C1143 172.99 1143 173.98 1143 175 C1143.66 175 1144.32 175 1145 175 C1144.58247702 183.40804895 1143.48194768 191.45571408 1141.81640625 199.6875 C1141.14825444 203.07762081 1140.60533891 206.47731767 1140.08740234 209.89355469 C1139.01190908 216.93832883 1137.90102269 223.97714919 1136.78515625 231.015625 C1131.91023552 261.82717105 1127.11721687 292.6487234 1122.5 323.5 C1119.0985524 346.22732179 1115.61848573 368.9396987 1112.02225494 391.63702011 C1107.58914071 419.61892565 1103.3002212 447.62122951 1099.08420181 475.63667297 C1098.63351556 478.63092463 1098.1823297 481.62510064 1097.73104858 484.6192627 C1096.87332556 490.31227267 1096.01773235 496.00559961 1095.1640625 501.69921875 C1095.02675783 502.61492771 1094.88945316 503.53063667 1094.74798775 504.47409439 C1093.0150701 516.04597035 1091.33516332 527.62402318 1089.70568657 539.21088409 C1087.95587659 551.64694316 1086.04971002 564.04136189 1083.94725037 576.42388916 C1081.39847533 591.45013065 1079.05934339 606.50876384 1076.71557617 621.56811523 C1076.19696189 624.89979445 1075.67642231 628.23116338 1075.15405273 631.56225586 C1074.37963974 636.5006721 1073.60844009 641.43958144 1072.83984375 646.37890625 C1072.71587597 647.17478779 1072.59190819 647.97066933 1072.46418381 648.79066849 C1071.17627516 657.07913511 1069.92627954 665.36973834 1068.80908203 673.68310547 C1068.67181056 674.70176713 1068.67181056 674.70176713 1068.53176594 675.7410078 C1068.10876258 678.89476992 1067.69566741 682.04942696 1067.29563904 685.20619202 C1067.152397 686.2995134 1067.00915497 687.39283478 1066.86157227 688.51928711 C1066.74225845 689.46339951 1066.62294464 690.4075119 1066.50001526 691.38023376 C1065.97735003 694.11867161 1065.05046862 696.42469455 1064 699 C1063.51792394 701.19315767 1063.51792394 701.19315767 1063.25390625 703.42285156 C1063.14054932 704.25717712 1063.02719238 705.09150269 1062.91040039 705.95111084 C1062.79559326 706.83865051 1062.68078613 707.72619019 1062.5625 708.640625 C1062.30337242 710.54509772 1062.04293144 712.44939214 1061.78125 714.35351562 C1061.65105469 715.30685791 1061.52085938 716.2602002 1061.38671875 717.24243164 C1060.83075832 721.20680857 1060.20505348 725.15824046 1059.5625 729.109375 C1059.43977722 729.86793793 1059.31705444 730.62650085 1059.19061279 731.40805054 C1058.93161988 733.00726473 1058.67223002 734.60641469 1058.41247559 736.20550537 C1055.15653262 756.29088657 1052.11439702 776.40707684 1049.10116196 796.52990723 C1045.49958286 820.58159322 1041.82861907 844.61984304 1038.02188492 868.63993073 C1033.56878868 896.74030557 1029.2806919 924.86342523 1025.0625 953 C1024.91551792 953.98038868 1024.76853584 954.96077736 1024.61709976 955.97087479 C1024.47038708 956.94946835 1024.32367439 957.9280619 1024.17251587 958.93630981 C1023.28598593 964.84952737 1022.39911356 970.76269342 1021.51171875 976.67578125 C1021.36581362 977.6480472 1021.21990849 978.62031315 1021.06958199 979.6220417 C1017.88736639 1000.81812075 1014.64162921 1022.00428446 1011.375 1043.1875 C1011.25089375 1043.99237854 1011.12678749 1044.79725708 1010.99892044 1045.62652588 C1009.7393743 1053.79428463 1008.47820857 1061.96179273 1007.21606445 1070.12915039 C1004.5927005 1087.10519769 1001.98304349 1104.08312923 999.41333008 1121.06738281 C996.91956047 1137.54596656 994.39271486 1154.01684249 991.70556641 1170.46508789 C990.39256158 1178.51037517 989.15058461 1186.56410622 987.9375 1194.625 C986.64330369 1203.20862394 985.12553322 1211.716945 983.43164062 1220.22973633 C981.99811377 1227.60914161 980.99488591 1235.01933148 980.12670898 1242.48510742 C979.50417521 1247.68945152 978.67724252 1252.80444445 977.671875 1257.94921875 C975.28603474 1270.22663449 973.61841829 1282.62722766 971.8125 1295 C971.44104418 1297.5286883 971.06930162 1300.05733449 970.69726562 1302.5859375 C969.79487208 1308.72347704 968.8960139 1314.86152603 968 1321 C949.50829457 1318.82860117 931.10349622 1316.14965533 912.69857025 1313.35277939 C910.33973386 1312.99464567 907.98071693 1312.6377243 905.62164307 1312.28115845 C875.20206211 1307.68241373 844.80918615 1302.91787879 814.42142868 1298.11405182 C802.61964448 1296.24884132 790.81187579 1294.42508078 779 1292.625 C765.46592651 1290.56156781 751.95891427 1288.36641705 738.4609375 1286.078125 C734.26070566 1285.36957407 730.05754523 1284.69408827 725.84643555 1284.0534668 C719.5575804 1283.08998587 713.27630683 1282.08446375 706.99609375 1281.06640625 C666.46602119 1274.5289507 625.89431637 1268.26906335 585.3125 1262.0625 C584.62556863 1261.95744093 583.93863727 1261.85238187 583.2308898 1261.74413919 C570.85029608 1259.85075786 558.46956059 1257.95830285 546.08834839 1256.06896973 C543.80539758 1255.72055347 541.52244873 1255.37212436 539.23950195 1255.02368164 C538.1420591 1254.8561995 537.04461624 1254.68871737 535.91391754 1254.51616001 C526.90880725 1253.1409356 517.90519361 1251.75605668 508.90258503 1250.36454868 C501.97567553 1249.29606738 495.04434714 1248.26088235 488.109375 1247.24609375 C486.44475471 1247.00218147 486.44475471 1247.00218147 484.74650574 1246.75334167 C483.86618179 1246.62486343 482.98585785 1246.49638519 482.07885742 1246.36401367 C458.01853995 1242.84479555 433.99216203 1239.13824677 409.97517395 1235.33738327 C387.25672261 1231.74257952 364.52574341 1228.24563643 341.77802277 1224.84099579 C316.86659925 1221.11202054 291.96603503 1217.3203825 267.08114624 1213.41793823 C264.85304802 1213.06885283 262.62479093 1212.72079968 260.39648438 1212.37304688 C246.67874361 1210.23093695 232.97583984 1208.05265446 219.32687664 1205.50192928 C212.8232981 1204.30006849 206.3068335 1203.24419907 199.76782227 1202.25512695 C197.45080055 1201.90157237 195.13381143 1201.54780418 192.81684875 1201.19386292 C191.56324366 1201.00268953 190.30963856 1200.81151615 189.01804543 1200.61454964 C182.4331921 1199.6087528 175.85057838 1198.58840704 169.2676934 1197.56982362 C165.09781095 1196.92465618 160.92783488 1196.28009429 156.75787354 1195.63543701 C155.89515302 1195.502049 155.0324325 1195.36866099 154.14356893 1195.23123091 C142.82394114 1193.48110541 131.50405574 1191.73264706 120.18417788 1189.98413992 C109.26050006 1188.29682996 98.33690217 1186.60900719 87.41357422 1184.91943359 C75.82287842 1183.12671922 64.23192496 1181.33567901 52.640625 1179.546875 C51.69932912 1179.40160283 50.75803325 1179.25633067 49.78821325 1179.10665631 C24.24753422 1175.165717 -1.30068652 1171.28863389 -26.86917114 1167.53190613 C-42.78659942 1165.19204094 -58.68381599 1162.74078237 -74.57162476 1160.20819092 C-81.8264975 1159.05178566 -89.08297584 1157.90552917 -96.33984375 1156.76171875 C-97.07120607 1156.64640556 -97.8025684 1156.53109238 -98.55609322 1156.41228485 C-109.5945122 1154.67368257 -120.63973012 1152.98420111 -131.69140625 1151.33203125 C-132.39758842 1151.22643198 -133.1037706 1151.12083271 -133.83135223 1151.01203346 C-141.20691509 1149.90991288 -148.58366847 1148.81609929 -155.96142578 1147.72875977 C-157.76219826 1147.46194649 -157.76219826 1147.46194649 -159.59934998 1147.18974304 C-161.83228604 1146.85900916 -164.06555504 1146.53051231 -166.29920959 1146.20466614 C-167.27707932 1146.05962143 -168.25494904 1145.91457672 -169.26245117 1145.76513672 C-170.11054855 1145.64065155 -170.95864594 1145.51616638 -171.83244324 1145.38790894 C-174 1145 -174 1145 -177 1144 C-177 1142.68 -177 1141.36 -177 1140 C-177.66 1140 -178.32 1140 -179 1140 C-179 1136.7 -179 1133.4 -179 1130 C-177.68 1130 -176.36 1130 -175 1130 C-174.90203125 1128.96746094 -174.8040625 1127.93492188 -174.703125 1126.87109375 C-173.86575902 1118.51301287 -172.76228841 1110.26300341 -171.25 1102 C-169.21981016 1090.85294329 -167.63269554 1079.65630725 -166.0625 1068.4375 C-164.17427347 1054.95492612 -162.14866485 1041.51870392 -159.83145142 1028.10310364 C-158.41919542 1019.80814303 -157.23672282 1011.50600297 -156.171875 1003.16015625 C-154.12806063 987.52062636 -151.71081556 971.95084819 -149.22400665 956.37652588 C-148.25171088 950.27813035 -147.28878967 944.17824089 -146.32442856 938.07858658 C-146.07683321 936.51279752 -145.82910416 934.94702959 -145.58124161 933.38128281 C-143.77057456 921.94208506 -141.98879839 910.49873773 -140.234375 899.05078125 C-140.06782347 897.9644896 -140.06782347 897.9644896 -139.89790726 896.85625267 C-138.9368096 890.58617907 -137.97714716 884.31588767 -137.02288818 878.04476929 C-134.7053464 862.82043435 -132.28629348 847.61910345 -129.72819519 832.43359375 C-128.02916007 822.2986414 -126.53554075 812.14877255 -125.16333008 801.96533203 C-124.02530576 793.5692858 -122.70822238 785.23560228 -121.15234375 776.90625 C-118.59996873 763.19672256 -116.53866895 749.41193546 -114.44794464 735.62639236 C-113.56933103 729.84126066 -112.68271023 724.05734562 -111.79786301 718.27316475 C-111.47074367 716.13413039 -111.14399144 713.99504019 -110.81729126 711.85594177 C-108.91326172 699.39584563 -106.96099317 686.94370153 -104.97705078 674.49609375 C-101.37220951 651.84834782 -97.95411196 629.17110653 -94.5 606.5 C-93.18478401 597.86756359 -91.8688733 589.23523456 -90.550354 580.603302 C-90.18143067 578.18787086 -89.81274014 575.77240414 -89.4442749 573.35690308 C-88.90920554 569.85105621 -88.37275852 566.34542277 -87.8359375 562.83984375 C-87.59937439 561.28789307 -87.59937439 561.28789307 -87.35803223 559.70458984 C-86.35151555 553.14412866 -85.26257412 546.60142199 -84.125 540.0625 C-82.43354102 530.15399744 -81.03897778 520.21463822 -79.68023682 510.25650024 C-76.91995521 490.03497501 -73.82378396 469.8786488 -70.60986328 449.72460938 C-70.22030692 447.28126127 -69.83082215 444.83790175 -69.44140625 442.39453125 C-69.24514648 441.1633255 -69.04888672 439.93211975 -68.84667969 438.66360474 C-66.40413409 423.30526013 -64.04594885 407.93394066 -61.6875 392.5625 C-61.47872771 391.20237091 -61.26994692 389.84224312 -61.06115723 388.4821167 C-60.46109532 384.57275142 -59.86136524 380.66333528 -59.26171875 376.75390625 C-59.07063034 375.50817337 -58.87954193 374.26244049 -58.68266296 372.97895813 C-57.75466296 366.92743161 -56.82819101 360.87567838 -55.90454102 354.82348633 C-54.20745913 343.7205405 -52.46943413 332.63149496 -50.5625 321.5625 C-48.5377072 309.6424888 -46.78985957 297.69935034 -45.12039185 285.72564697 C-43.79435502 276.24083406 -42.31712025 266.8127749 -40.51489258 257.40527344 C-38.97525882 249.22142785 -37.80195975 240.99170864 -36.625 232.75 C-35.08729188 221.98693989 -33.3917496 211.27457494 -31.44146729 200.57846069 C-28.94553096 186.88940164 -26.81508782 173.18157345 -24.89682007 159.40014648 C-22.38904334 141.40742624 -19.64994784 123.45300458 -16.875 105.5 C-16.76829483 104.80931805 -16.66158966 104.11863609 -16.551651 103.40702438 C-15.42418828 96.10923311 -14.29442597 88.81180188 -13.1628418 81.51464844 C-12.39670916 76.57067949 -11.63510617 71.62604988 -10.87817383 66.68066406 C-10.70009186 65.51805054 -10.52200989 64.35543701 -10.33853149 63.15759277 C-10.01002156 61.01098218 -9.68221251 58.86426414 -9.35531616 56.71740723 C-8.28342844 49.71639307 -7.12805228 42.7317454 -5.9375 35.75 C-4.41729666 26.78098062 -3.09643538 17.80120391 -1.95092773 8.77636719 C-1.78379272 7.48327637 -1.78379272 7.48327637 -1.61328125 6.1640625 C-1.51829346 5.40561035 -1.42330566 4.6471582 -1.32543945 3.86572266 C-1 2 -1 2 0 0 Z " fill="#FEFEFE" transform="translate(1035,802)"/>
<path d="M0 0 C8.80280429 -0.43765513 17.28553794 0.91980892 25.9453125 2.30078125 C27.48443538 2.54080909 29.02365253 2.78023312 30.56295776 3.01908875 C33.7793686 3.5197505 36.9949529 4.02532113 40.20996094 4.53491211 C44.28301035 5.1804482 48.35734478 5.81735229 52.43226814 6.45094013 C56.37461474 7.06437771 60.31621957 7.68252311 64.2578125 8.30078125 C65.3504006 8.4714936 65.3504006 8.4714936 66.46506119 8.64565468 C75.52513567 10.06477625 84.54531509 11.62279137 93.55224609 13.34861755 C98.31264301 14.247997 103.08569845 15.02278881 107.875 15.75 C108.93283691 15.91209961 109.99067383 16.07419922 111.08056641 16.24121094 C121.77090254 17.85578308 132.4809706 19.325555 143.19015503 20.80862427 C161.5891739 23.35847536 179.97414446 25.9872592 198.33746338 28.78381348 C200.64309956 29.13458928 202.94904731 29.48332362 205.25531006 29.82995605 C208.4693795 30.31395297 211.68209434 30.80607924 214.89453125 31.30078125 C215.84742538 31.44322769 216.80031952 31.58567413 217.78208923 31.73243713 C222.10099836 32.40724432 226.01733464 33.09479447 230 35 C228 47 228 47 227.55371094 49.56787109 C225.93114433 59.02543399 224.71455367 68.52580212 223.5 78.04296875 C222.6929813 84.2406202 221.77801558 90.34642624 220.48681641 96.46044922 C219.4696462 101.76667015 218.87835969 107.14349609 218.1875 112.5 C216.76456063 123.24736927 215.02780909 133.86792065 212.75073242 144.46875 C211.46037598 150.70346778 210.66754787 156.87948678 210.0859375 163.2109375 C208.9734241 175.23931721 207.12351834 187.13273824 205.25 199.0625 C204.89504169 201.34730889 204.5402255 203.63213986 204.18554688 205.91699219 C201.31736025 224.31158352 198.25370103 242.66981796 195 261 C194.35933594 261.12375 193.71867187 261.2475 193.05859375 261.375 C192.03958984 261.684375 192.03958984 261.684375 191 262 C190.690625 262.66 190.38125 263.32 190.0625 264 C189 266 189 266 187.0078125 266.7265625 C182.7498927 267.11364612 178.9794451 266.23096909 174.8125 265.375 C162.95204383 263.06124397 151.0268056 261.34226233 139.0637207 259.66357422 C138.33847198 259.56025284 137.61322327 259.45693146 136.86599731 259.35047913 C134.87297469 259.06662667 132.87925453 258.78768444 130.88549805 258.5090332 C128 258 128 258 127 257 C125.5593545 256.79691588 124.11027592 256.65286591 122.66015625 256.53515625 C121.76103516 256.45716797 120.86191406 256.37917969 119.93554688 256.29882812 C118.05542115 256.14417468 116.1752154 255.99049031 114.29492188 255.83789062 C108.91876015 255.36990202 103.74563749 254.6098055 98.46850586 253.48852539 C94.25952632 252.65555456 90.0081784 252.19551734 85.75 251.6875 C76.7067043 250.55968158 67.73210594 249.16309677 58.75 247.625 C47.60450593 245.72133809 36.4464945 244.01147147 25.25 242.4375 C22.30076702 242.0222364 19.35154185 241.60691746 16.40234375 241.19140625 C15.33215248 241.04069168 15.33215248 241.04069168 14.24034119 240.88693237 C0.29891796 238.91776921 -13.63845644 236.8512431 -27.5 234.375 C-28.7271875 234.15585938 -29.954375 233.93671875 -31.21875 233.7109375 C-34 233 -34 233 -36 231 C-36 229.68 -36 228.36 -36 227 C-36.99 226.67 -37.98 226.34 -39 226 C-38.26438856 220.83458061 -37.51830706 215.67077053 -36.765625 210.5078125 C-36.64739883 209.69673035 -36.52917267 208.88564819 -36.40736389 208.04998779 C-34.94604182 198.03217864 -33.47498074 188.01580627 -32 178 C-31.87844543 177.17363037 -31.75689087 176.34726074 -31.63165283 175.49584961 C-30.96630593 170.97511752 -30.29668152 166.45505988 -29.62023926 161.93597412 C-29.32350828 159.94872402 -29.03033772 157.96094329 -28.73730469 155.97314453 C-27.81646282 149.85475089 -26.77849853 143.79579329 -25.515625 137.73828125 C-23.72316707 128.98502623 -22.57766647 120.17057821 -21.4375 111.3125 C-21.12334436 108.89732208 -20.80766111 106.48236074 -20.48976135 104.06767273 C-20.29476664 102.58410943 -20.10193437 101.10025915 -19.91197205 99.61604309 C-19.24296751 94.49161094 -18.41005725 89.40349089 -17.54899597 84.30809021 C-16.52351742 78.12885439 -15.59329276 71.93475359 -14.65234375 65.7421875 C-14.4333973 64.30355806 -14.21444889 62.86492891 -13.99549866 61.42630005 C-13.54019542 58.43290131 -13.08567955 55.43938413 -12.6315918 52.44580078 C-12.05342153 48.63536013 -11.47208808 44.82540916 -10.89002132 41.01556206 C-10.43789285 38.05247709 -9.98805458 35.08904761 -9.53882027 32.12552261 C-9.32558007 30.72136897 -9.1115149 29.31734032 -8.89655876 27.91344833 C-7.82364808 20.9008826 -6.79290124 13.93899372 -6.3361969 6.85574341 C-6 5 -6 5 -4 3 C-3.01 3 -2.02 3 -1 3 C-0.67 2.01 -0.34 1.02 0 0 Z " fill="#010101" transform="translate(1425,1330)"/>
</svg>
